<svg width="73" height="42" viewBox="0 0 73 42" fill="none" xmlns="http://www.w3.org/2000/svg">
<path d="M11.3585 31.68C11.8278 31.7653 12.4038 31.8507 13.0865 31.936C13.7692 31.9787 14.4092 32 15.0065 32C16.4572 32 17.7798 31.7867 18.9745 31.36C20.2118 30.9333 21.2572 30.272 22.1105 29.376C23.0065 28.48 23.6892 27.328 24.1585 25.92C24.6705 24.4693 24.9265 22.7413 24.9265 20.736C24.9265 16.896 24.0305 14.016 22.2385 12.096C20.4465 10.1333 18.0572 9.152 15.0705 9.152C14.4732 9.152 13.8545 9.17333 13.2145 9.216C12.6172 9.25867 11.9985 9.32267 11.3585 9.408V31.68ZM14.9425 41.024C14.2172 41.024 13.3852 41.0027 12.4465 40.96C11.5078 40.9173 10.5265 40.832 9.5025 40.704C8.52117 40.576 7.5185 40.4053 6.4945 40.192C5.51317 40.0213 4.59583 39.7653 3.7425 39.424C1.39583 38.528 0.2225 36.9707 0.2225 34.752V4.864C0.2225 3.968 0.457167 3.28533 0.9265 2.816C1.4385 2.304 2.12117 1.89866 2.9745 1.6C4.80917 1.00267 6.7505 0.618665 8.7985 0.447998C10.8465 0.234665 12.6812 0.127998 14.3025 0.127998C17.6305 0.127998 20.6385 0.533332 23.3265 1.344C26.0572 2.15466 28.3825 3.41333 30.3025 5.12C32.2652 6.784 33.7798 8.896 34.8465 11.456C35.9132 14.016 36.4465 17.0453 36.4465 20.544C36.4465 23.9573 35.9345 26.944 34.9105 29.504C33.8865 32.0213 32.4145 34.1547 30.4945 35.904C28.6172 37.6107 26.3558 38.8907 23.7105 39.744C21.0652 40.5973 18.1425 41.024 14.9425 41.024ZM53.8555 24.576C51.9782 23.936 50.2715 23.296 48.7355 22.656C47.1995 21.9733 45.8768 21.1627 44.7675 20.224C43.6582 19.2853 42.7835 18.176 42.1435 16.896C41.5462 15.5733 41.2475 13.9733 41.2475 12.096C41.2475 8.46933 42.6342 5.568 45.4075 3.392C48.2235 1.216 52.1488 0.127998 57.1835 0.127998C59.0182 0.127998 60.7248 0.255998 62.3035 0.511997C63.8822 0.767999 65.2262 1.17333 66.3355 1.728C67.4875 2.24 68.3835 2.92266 69.0235 3.776C69.6635 4.58666 69.9835 5.54666 69.9835 6.656C69.9835 7.76533 69.7275 8.72533 69.2155 9.536C68.7035 10.304 68.0848 10.9653 67.3595 11.52C66.4208 10.9227 65.1622 10.4107 63.5835 9.984C62.0048 9.51467 60.2768 9.28 58.3995 9.28C56.4795 9.28 55.0715 9.55733 54.1755 10.112C53.2795 10.624 52.8315 11.2853 52.8315 12.096C52.8315 12.736 53.1088 13.2693 53.6635 13.696C54.2182 14.08 55.0502 14.4427 56.1595 14.784L59.5515 15.872C63.5622 17.152 66.6342 18.7947 68.7675 20.8C70.9435 22.7627 72.0315 25.4507 72.0315 28.864C72.0315 32.4907 70.6022 35.4347 67.7435 37.696C64.8848 39.9147 60.6822 41.024 55.1355 41.024C53.1728 41.024 51.3382 40.8533 49.6315 40.512C47.9675 40.2133 46.4955 39.7653 45.2155 39.168C43.9782 38.528 42.9968 37.76 42.2715 36.864C41.5888 35.9253 41.2475 34.8587 41.2475 33.664C41.2475 32.4267 41.6102 31.3813 42.3355 30.528C43.0608 29.632 43.8502 28.9493 44.7035 28.48C45.8982 29.4187 47.3488 30.2293 49.0555 30.912C50.8048 31.5947 52.7035 31.936 54.7515 31.936C56.8422 31.936 58.3142 31.616 59.1675 30.976C60.0208 30.336 60.4475 29.5893 60.4475 28.736C60.4475 27.8827 60.1062 27.2427 59.4235 26.816C58.7408 26.3467 57.7808 25.8987 56.5435 25.472L53.8555 24.576Z" fill="#325AA6"/>
</svg>
